<svg xmlns="http://www.w3.org/2000/svg" width="23.283" height="28.667" viewBox="0 0 23.283 28.667">
  <g id="Group_670" data-name="Group 670" transform="translate(0 0)">
    <path id="Path_4" data-name="Path 4" d="M223.069,154.7a.671.671,0,0,0-.671.671v12.689a.671.671,0,1,0,1.343,0V155.374A.671.671,0,0,0,223.069,154.7Zm0,0" transform="translate(-207.467 -144.317)" fill="#707070"/>
    <path id="Path_5" data-name="Path 5" d="M105.069,154.7a.671.671,0,0,0-.671.671v12.689a.671.671,0,0,0,1.343,0V155.374A.671.671,0,0,0,105.069,154.7Zm0,0" transform="translate(-97.389 -144.317)" fill="#707070"/>
    <path id="Path_6" data-name="Path 6" d="M1.9,8.533V25.074a3.7,3.7,0,0,0,.985,2.555,3.306,3.306,0,0,0,2.4,1.037h12.7a3.305,3.305,0,0,0,2.4-1.037,3.7,3.7,0,0,0,.985-2.555V8.533a2.565,2.565,0,0,0-.658-5.043H17.277V2.65A2.637,2.637,0,0,0,14.619,0H8.657A2.637,2.637,0,0,0,6,2.65V3.49H2.561A2.565,2.565,0,0,0,1.9,8.533Zm16.086,18.79H5.287a2.126,2.126,0,0,1-2.041-2.249V8.592H20.03V25.074a2.126,2.126,0,0,1-2.041,2.249ZM7.341,2.65A1.293,1.293,0,0,1,8.657,1.341h5.961A1.293,1.293,0,0,1,15.935,2.65V3.49H7.341ZM2.561,4.832H20.715a1.208,1.208,0,1,1,0,2.417H2.561a1.208,1.208,0,0,1,0-2.417Zm0,0" transform="translate(0.003 0.002)" fill="#707070"/>
    <path id="Path_7" data-name="Path 7" d="M164.069,154.7a.671.671,0,0,0-.671.671v12.689a.671.671,0,1,0,1.343,0V155.374A.671.671,0,0,0,164.069,154.7Zm0,0" transform="translate(-152.428 -144.317)" fill="#707070"/>
  </g>
</svg>
