<svg xmlns="http://www.w3.org/2000/svg" width="35.38" height="43.562" viewBox="0 0 35.38 43.562">
  <g id="delet" transform="translate(-472.004 -1013.999)">
    <path id="Path_4" data-name="Path 4" d="M223.418,154.7a1.02,1.02,0,0,0-1.02,1.02V175a1.02,1.02,0,1,0,2.04,0V155.723A1.02,1.02,0,0,0,223.418,154.7Zm0,0" transform="translate(272.295 875.078)" fill="#707070"/>
    <path id="Path_5" data-name="Path 5" d="M105.418,154.7a1.02,1.02,0,0,0-1.02,1.02V175a1.02,1.02,0,0,0,2.04,0V155.723A1.02,1.02,0,0,0,105.418,154.7Zm0,0" transform="translate(378.257 875.078)" fill="#707070"/>
    <path id="Path_6" data-name="Path 6" d="M2.894,12.967V38.1a5.628,5.628,0,0,0,1.5,3.882A5.024,5.024,0,0,0,8.036,43.56h19.3a5.023,5.023,0,0,0,3.645-1.576,5.628,5.628,0,0,0,1.5-3.882V12.967a3.9,3.9,0,0,0-1-7.664H26.256V4.028A4.007,4.007,0,0,0,22.216,0H13.157a4.007,4.007,0,0,0-4.04,4.03V5.3H3.894a3.9,3.9,0,0,0-1,7.664ZM27.338,41.52H8.036a3.231,3.231,0,0,1-3.1-3.418V13.057h25.5V38.1a3.231,3.231,0,0,1-3.1,3.418ZM11.158,4.028a1.965,1.965,0,0,1,2-1.989h9.059a1.965,1.965,0,0,1,2,1.989V5.3H11.158ZM3.894,7.344H31.479a1.836,1.836,0,1,1,0,3.673H3.894a1.836,1.836,0,0,1,0-3.673Zm0,0" transform="translate(472.007 1014.001)" fill="#707070"/>
    <path id="Path_7" data-name="Path 7" d="M164.418,154.7a1.02,1.02,0,0,0-1.02,1.02V175a1.02,1.02,0,1,0,2.04,0V155.723A1.02,1.02,0,0,0,164.418,154.7Zm0,0" transform="translate(325.276 875.078)" fill="#707070"/>
  </g>
</svg>
