<svg id="Group_672" data-name="Group 672" xmlns="http://www.w3.org/2000/svg" width="37.691" height="23.65" viewBox="0 0 37.691 23.65">
  <path id="Path_286" data-name="Path 286" d="M-493.482,222.675c-2.107.059-4.218.009-6.327.022a.471.471,0,0,1-.514-.336c-.6-1.4-2.328-1.926-2.463-.136.062.14.119.285.182.437h-13.108c.515-1.178-1.469-2.6-2.258-.335a.516.516,0,0,1-.564.37c-2.269-.013-4.538-.009-6.807-.006a2.545,2.545,0,0,0-2.4,1.464,5.907,5.907,0,0,0-.256.678v.809c.292,1.236.592,2.47.875,3.707q1.524,6.631,3.039,13.264a2.6,2.6,0,0,0,2.713,2.116q4.508.007,9.016,0h15.2a2.656,2.656,0,0,0,2.987-2.369q1.905-8.293,3.8-16.589a.682.682,0,0,1,.06-.131v-.809A2.815,2.815,0,0,0-493.482,222.675Zm.9,2.877q-1.885,8.24-3.768,16.48a.564.564,0,0,1-.642.5q-12.161-.009-24.322,0a.564.564,0,0,1-.644-.5q-1.886-8.277-3.785-16.552c-.1-.416.026-.585.444-.586q3-.006,6,0a1.324,1.324,0,0,1,.177.027c-.091.218-.179.417-.257.618a1.1,1.1,0,0,0,.561,1.451,1.086,1.086,0,0,0,1.449-.559c.192-.4.378-.8.53-1.209a.452.452,0,0,1,.51-.338q5.723.015,11.444.007c.994,0,1.988.006,2.981,0a.368.368,0,0,1,.41.266c.159.409.341.812.524,1.211a1.1,1.1,0,0,0,1.481.627,1.116,1.116,0,0,0,.538-1.517c-.074-.178-.149-.354-.239-.564.152-.008.259-.018.367-.018h5.7C-492.565,224.895-492.461,225.02-492.582,225.551Z" transform="translate(528 -221.082)"/>
  <path id="Path_287" data-name="Path 287" d="M-412.546,389.506q0,1.945,0,3.888a1.135,1.135,0,0,1-1.1,1.256,1.132,1.132,0,0,1-1.11-1.242q0-3.906,0-7.812a1.1,1.1,0,0,1,1.114-1.227,1.1,1.1,0,0,1,1.092,1.212C-412.544,386.89-412.546,388.2-412.546,389.506Z" transform="translate(425.87 -375.782)"/>
  <path id="Path_288" data-name="Path 288" d="M-345.051,389.506q0,1.943,0,3.888a1.136,1.136,0,0,1-1.091,1.26,1.139,1.139,0,0,1-1.116-1.273q0-3.906,0-7.813a1.1,1.1,0,0,1,1.22-1.189,1.1,1.1,0,0,1,.986,1.165C-345.048,386.865-345.051,388.185-345.051,389.506Z" transform="translate(365 -375.786)"/>
  <path id="Path_289" data-name="Path 289" d="M-277.546,389.489c0,1.308,0,2.617,0,3.925a1.13,1.13,0,0,1-1.115,1.237,1.128,1.128,0,0,1-1.091-1.223q0-3.925,0-7.849a1.1,1.1,0,0,1,1.1-1.208,1.1,1.1,0,0,1,1.11,1.195C-277.543,386.873-277.546,388.18-277.546,389.489Z" transform="translate(304.121 -375.782)"/>
</svg>
