<svg xmlns="http://www.w3.org/2000/svg" width="25.508" height="25.508" viewBox="0 0 25.508 25.508">
  <path id="user_2_" data-name="user (2)" d="M25.008,12.5a12.5,12.5,0,1,0-20.95,9.211l-.012.01.406.342c.026.022.055.04.081.062.216.179.439.348.666.512.074.053.147.106.222.158q.364.251.747.477l.167.1c.279.159.563.308.855.446l.065.029a12.392,12.392,0,0,0,3.024.957l.084.015c.329.057.662.1,1,.133l.123.01c.336.028.675.045,1.019.045s.677-.018,1.01-.045l.127-.01q.5-.046.99-.13l.085-.015a12.391,12.391,0,0,0,2.981-.934l.1-.047q.421-.2.823-.426l.2-.115c.245-.144.485-.295.719-.455.084-.057.166-.118.25-.178.2-.144.4-.292.586-.447.042-.034.088-.064.129-.1l.416-.347-.012-.01A12.472,12.472,0,0,0,25.008,12.5Zm-24.1,0a11.595,11.595,0,1,1,19.284,8.668,3.408,3.408,0,0,0-.406-.244L15.938,19a1.008,1.008,0,0,1-.56-.906V16.752c.089-.11.183-.235.281-.371a9.266,9.266,0,0,0,1.189-2.329,1.65,1.65,0,0,0,.948-1.5V10.944a1.654,1.654,0,0,0-.4-1.077V7.745a3.667,3.667,0,0,0-.856-2.666A5.118,5.118,0,0,0,12.5,3.638a5.12,5.12,0,0,0-4.032,1.44,3.667,3.667,0,0,0-.856,2.666V9.866a1.657,1.657,0,0,0-.4,1.077v1.612a1.654,1.654,0,0,0,.609,1.283,8.544,8.544,0,0,0,1.406,2.905v1.316a1.014,1.014,0,0,1-.528.89L5.1,20.911a3.286,3.286,0,0,0-.342.216A11.567,11.567,0,0,1,.909,12.5Zm18.4,9.381c-.159.115-.321.227-.485.334-.075.049-.151.1-.227.146-.215.133-.433.259-.656.377l-.148.076a11.587,11.587,0,0,1-1.586.671l-.058.02q-.428.142-.866.251h0c-.295.073-.593.133-.893.183l-.025,0c-.282.046-.567.079-.853.1l-.152.011c-.282.021-.566.035-.851.035s-.576-.014-.862-.035l-.148-.011c-.288-.025-.575-.06-.859-.106l-.038-.007A11.552,11.552,0,0,1,8.828,23.5l-.054-.018q-.429-.146-.847-.324l-.006,0c-.263-.113-.521-.239-.775-.371l-.1-.051c-.232-.124-.46-.258-.684-.4l-.2-.127c-.206-.135-.41-.276-.608-.424l-.06-.047.044-.025,3.6-1.961a1.923,1.923,0,0,0,1-1.689V16.421l-.1-.126a7.592,7.592,0,0,1-1.365-2.826l-.041-.18-.155-.1a.754.754,0,0,1-.35-.633V10.943a.743.743,0,0,1,.253-.556l.15-.135V7.719l0-.06a2.739,2.739,0,0,1,.635-1.982A4.285,4.285,0,0,1,12.5,4.547a4.3,4.3,0,0,1,3.34,1.121,2.784,2.784,0,0,1,.642,1.992l0,2.592.15.135a.743.743,0,0,1,.253.556v1.612a.759.759,0,0,1-.537.716l-.226.07-.073.225a8.412,8.412,0,0,1-1.135,2.288c-.119.168-.235.317-.335.432l-.113.129V18.1a1.912,1.912,0,0,0,1.063,1.72l3.85,1.925.073.038C19.405,21.816,19.355,21.85,19.306,21.886Z" transform="translate(0.25 0.25)" fill="#fff" stroke="#fff" stroke-width="0.5"/>
</svg>
